<svg xmlns="http://www.w3.org/2000/svg" width="606" height="309" viewBox="0 0 606 309">
  <defs>
    <linearGradient id="404-a" x1="50%" x2="50%" y1="0%" y2="100%">
      <stop offset="0%" stop-color="#333"/>
      <stop offset="100%" stop-color="#DC4041"/>
    </linearGradient>
    <linearGradient id="404-b" x1="50%" x2="50%" y1=".135%" y2="100%">
      <stop offset="0%" stop-color="#DC4041"/>
      <stop offset="100%" stop-color="#333"/>
    </linearGradient>
  </defs>
  <g fill="none">
    <path fill="url(#404-a)" d="M182,236 L62.7643312,236 L62.7643312,225.672609 L105.566879,225.672609 L105.566879,177.095624 L4.29299363,176.713128 L2,165.23825 C9.64335032,159.118284 16.9044242,152.870912 23.7834395,146.495948 C54.6116191,117.171112 76.3948408,84.0217948 89.133758,47.0470016 C96.0127732,27.1571129 99.7070038,16.4473334 100.216561,14.917342 C105.312127,4.9723976 113.337525,0 124.292994,0 C126.840777,0 129.133748,0.254994749 131.171975,0.764991896 C143.401335,3.05997906 149.515924,10.3273294 149.515924,22.5672609 C149.261145,37.8671754 135.503321,59.4142316 108.242038,87.2090762 C93.974451,101.488996 64.2932191,127.498461 19.1974522,165.23825 L105.566879,165.620746 L105.566879,120.103728 L109.388535,120.103728 C113.464989,120.103728 116.904445,119.848733 119.707006,119.338736 C127.095578,117.808744 132.191069,112.326357 134.993631,102.89141 L139.961783,86.8265802 L148.369427,86.8265802 L148.369427,166.003241 L182,166.003241 L182,177.47812 L148.369427,177.47812 L148.369427,225.672609 L172.828025,225.672609 C174.356696,225.672609 175.757955,225.800107 177.031847,226.055105 C180.343966,226.565102 182,229.880034 182,236 Z M314.584906,0 C331.725453,0 346.752556,4.94309838 359.666667,14.8294434 C384.55568,34.6021336 397,69.2038223 397,118.635548 C397,148.294583 391.364836,173.433769 380.09434,194.05386 C364.832209,222.018093 342.408953,236 312.823899,236 C293.804936,236 277.369042,229.785819 263.515723,217.357271 C240.505126,196.172246 229,162.700408 229,116.940754 C229,87.2817189 234.752563,62.1425328 246.257862,41.5224417 C261.989596,13.8406755 284.76505,0 314.584906,0 Z M313.888889,224 C320.525959,224 326.333308,222.023877 331.311111,218.071571 C345.770443,206.214652 353,172.1971 353,116.017893 C353,89.4809806 351.340757,68.1670785 348.022222,52.0755467 C342.570343,24.691712 331.074162,11 313.533333,11 C308.081454,11 303.222244,12.270365 298.955556,14.8111332 C281.651765,24.9742059 273,59.4152134 273,118.135189 C273,147.212869 274.896277,169.938288 278.688889,186.312127 C284.377806,211.437501 296.111022,224 313.888889,224 Z M604,236 L484.764331,236 L484.764331,225.672609 L527.566879,225.672609 L527.566879,177.095624 L426.292994,176.713128 L424,165.23825 C431.64335,159.118284 438.904424,152.870912 445.783439,146.495948 C476.611619,117.171112 498.394841,84.0217948 511.133758,47.0470016 C518.012773,27.1571129 521.707004,16.4473334 522.216561,14.917342 C527.312127,4.9723976 535.337525,0 546.292994,0 C548.840777,0 551.133748,0.254994749 553.171975,0.764991896 C565.401335,3.05997906 571.515924,10.3273294 571.515924,22.5672609 C571.261145,37.8671754 557.503321,59.4142316 530.242038,87.2090762 C515.974451,101.488996 486.293219,127.498461 441.197452,165.23825 L527.566879,165.620746 L527.566879,120.103728 L531.388535,120.103728 C535.464989,120.103728 538.904445,119.848733 541.707006,119.338736 C549.095578,117.808744 554.191069,112.326357 556.993631,102.89141 L561.961783,86.8265802 L570.369427,86.8265802 L570.369427,166.003241 L604,166.003241 L604,177.47812 L570.369427,177.47812 L570.369427,225.672609 L594.828025,225.672609 C596.356696,225.672609 597.757955,225.800107 599.031847,226.055105 C602.343966,226.565102 604,229.880034 604,236 Z"/>
    <path fill="url(#404-b)" d="M11.9023437,275.308594 L8.72265625,275.308594 L8.72265625,287.296875 L12.0742187,287.296875 C15.1393382,287.067707 16.671875,285.048196 16.671875,281.238281 C16.671875,280.837238 16.6575522,280.450523 16.6289062,280.078125 C16.2851545,276.898422 14.7096495,275.308594 11.9023437,275.308594 Z M13.0195312,299.929688 L0,299.929688 L0,298.769531 L3.4375,298.769531 L3.4375,275.308594 L0,275.308594 L0,274.148438 L13.8359375,274.148438 C15.7552179,274.148438 17.3880141,274.477861 18.734375,275.136719 C21.140637,276.311204 22.34375,278.259101 22.34375,280.980469 C22.34375,282.154954 22.1145856,283.229162 21.65625,284.203125 C20.2812431,287.125015 17.1732013,288.585938 12.3320312,288.585938 L8.72265625,288.585938 L8.72265625,298.769531 L11.859375,298.769531 C12.4609405,298.826823 12.8476554,299.213538 13.0195312,299.929688 Z M64.3660946,300.359375 C62.1030624,300.330729 60.742399,299.027357 60.2840633,296.449219 C60.0835415,296.964846 59.8114088,297.466143 59.4676571,297.953125 C58.2072341,299.5573 56.445533,300.359375 54.1825008,300.359375 C53.3804135,300.359375 52.6356293,300.244793 51.9481258,300.015625 C49.7996776,299.299476 48.7254696,297.709648 48.7254696,295.246094 C48.7541156,291.436179 52.521005,289.473959 60.0262508,289.359375 L60.0262508,286.609375 C60.0262508,286.065101 59.9976053,285.563804 59.9403133,285.105469 C59.6538536,283.071604 58.6512594,282.054688 56.9325008,282.054688 C56.4741652,282.054688 56.0588048,282.140624 55.6864071,282.3125 C55.1421335,282.59896 54.6981276,283.329421 54.3543758,284.503906 C54.2397919,284.847658 54.1538553,285.091145 54.0965633,285.234375 C53.6955197,286.294276 52.979381,286.824219 51.9481258,286.824219 C51.6903121,286.824219 51.4325021,286.78125 51.1746883,286.695312 C50.2580171,286.408853 49.7996883,285.778651 49.7996883,284.804688 C49.7996883,284.28906 49.9572388,283.802086 50.2723446,283.34375 C51.3322457,281.739575 53.6668578,280.9375 57.2762508,280.9375 C58.0783382,280.9375 58.8374452,281.009114 59.5535946,281.152344 C63.0484037,281.839847 64.7957821,284.031232 64.7957821,287.726562 L64.7957821,296.75 C64.7957821,298.125007 65.1252059,298.841146 65.7840633,298.898438 C66.6434426,298.869792 67.1590625,297.852875 67.3309383,295.847656 L68.4481258,295.890625 C68.3908339,296.692712 68.2905745,297.380205 68.1473446,297.953125 C67.660363,299.5573 66.3999589,300.359375 64.3660946,300.359375 Z M56.1590633,298.554688 C56.5028151,298.554688 56.8752072,298.468751 57.2762508,298.296875 C58.6226117,297.695309 59.5392692,296.420583 60.0262508,294.472656 L60.0262508,290.5625 C58.593952,290.591146 57.4194846,290.734374 56.5028133,290.992188 C54.5548869,291.507815 53.5809383,292.739574 53.5809383,294.6875 L53.5809383,295.117188 C53.6955222,297.408866 54.5548887,298.554688 56.1590633,298.554688 Z M100.029064,288.070312 C100.029064,289.531257 100.115001,290.662756 100.286877,291.464844 C100.68792,293.212248 101.71916,294.085938 103.380627,294.085938 C104.182714,294.085938 104.841562,293.899741 105.357189,293.527344 C106.331152,292.782548 106.818127,290.934911 106.818127,287.984375 C106.818127,286.466138 106.717867,285.305994 106.517345,284.503906 C106.116302,282.871086 105.085062,282.054688 103.423595,282.054688 C102.564216,282.054688 101.891046,282.255206 101.404064,282.65625 C100.487393,283.372399 100.029064,285.177069 100.029064,288.070312 Z M103.552502,280.9375 C105.41449,280.9375 107.018641,281.338538 108.365002,282.140625 C108.479586,281.768227 108.637136,281.395835 108.837658,281.023438 C109.668391,279.476555 110.79989,278.703125 112.232189,278.703125 C112.690525,278.703125 113.120208,278.774739 113.521252,278.917969 C114.495215,279.319012 114.982189,280.020828 114.982189,281.023438 C114.982189,281.138021 114.967866,281.266926 114.93922,281.410156 C114.767345,282.183598 114.28037,282.570312 113.478283,282.570312 C113.163177,282.570312 112.805108,282.412762 112.404064,282.097656 C111.859791,281.610675 111.401462,281.367188 111.029064,281.367188 C110.255623,281.395833 109.668389,281.868485 109.267345,282.785156 C110.814228,284.102871 111.601981,285.807281 111.630627,287.898438 C111.630627,289.473966 111.143652,290.906244 110.169689,292.195312 C108.622806,294.200531 106.359808,295.203125 103.380627,295.203125 L103.25172,295.203125 L99.0407829,295.160156 C98.897553,295.160156 98.7400025,295.174479 98.5681267,295.203125 C97.7946853,295.346355 97.4079704,295.747393 97.4079704,296.40625 C97.4079704,296.492188 97.4222932,296.592447 97.4509392,296.707031 C97.5941691,297.423181 98.1097889,297.795573 98.9978142,297.824219 L107.548595,297.996094 C108.035577,297.996094 108.508229,298.039062 108.966564,298.125 C111.859808,298.583336 113.306408,300.130195 113.306408,302.765625 C113.306408,303.539066 113.091566,304.283851 112.661877,305 C111.258224,307.148448 108.264764,308.222656 103.681408,308.222656 C101.819419,308.222656 100.229592,307.964846 98.9118767,307.449219 C96.9353043,306.675777 95.9470329,305.515633 95.9470329,303.96875 C95.9470329,303.023433 96.3480706,302.106775 97.1501579,301.21875 C96.0616108,300.388017 95.5030227,299.27084 95.4743767,297.867188 C95.4743767,297.322914 95.5746361,296.792971 95.7751579,296.277344 C96.4053694,294.759107 97.5511913,294.014323 99.2126579,294.042969 C98.8975522,293.842447 98.5824512,293.627605 98.2673454,293.398438 C96.2334811,291.880201 95.2165642,290.075531 95.2165642,287.984375 C95.2165642,286.437492 95.6748929,285.076829 96.5915642,283.902344 C98.1384469,281.925771 100.458736,280.9375 103.552502,280.9375 Z M103.681408,307.105469 C105.056415,307.105469 106.331142,306.976564 107.505627,306.71875 C109.997827,306.174476 111.243908,305.243496 111.243908,303.925781 C111.243908,303.639321 111.186617,303.381512 111.072033,303.152344 C110.785573,302.522132 109.725688,302.192708 107.892345,302.164062 L99.8571892,302.078125 C99.3129156,302.078125 98.7543275,301.977866 98.1814079,301.777344 C97.6944263,302.436201 97.4366164,303.095049 97.4079704,303.753906 C97.4079704,304.126304 97.4939071,304.484373 97.6657829,304.828125 C98.4392243,306.346362 100.444413,307.105469 103.681408,307.105469 Z M150.129534,282.054688 C149.814428,282.054688 149.485004,282.097656 149.141253,282.183594 C147.107388,282.813805 146.03318,285.16274 145.918596,289.230469 L149.22719,289.359375 C150.430321,289.388021 151.346979,289.316407 151.97719,289.144531 C152.951153,288.80078 153.438128,287.955736 153.438128,286.609375 C153.438128,286.122393 153.395159,285.649742 153.309221,285.191406 C152.96547,283.10025 151.905584,282.054688 150.129534,282.054688 Z M157.992815,295.589844 C157.820939,296.019533 157.606098,296.449217 157.348284,296.878906 C155.887339,299.19923 153.524081,300.359375 150.25844,300.359375 C148.33916,300.359375 146.606104,299.929692 145.059221,299.070312 C142.165978,297.3802 140.719378,294.572936 140.719378,290.648438 C140.719378,288.242175 141.335257,286.194019 142.567034,284.503906 C144.314438,282.12629 146.835246,280.9375 150.129534,280.9375 C151.93423,280.9375 153.552704,281.281247 154.985003,281.96875 C157.276681,283.114589 158.422503,284.818999 158.422503,287.082031 C158.422503,287.712243 158.279275,288.256508 157.992815,288.714844 C157.133436,290.032559 154.555337,290.648438 150.25844,290.5625 L145.918596,290.476562 L145.918596,290.5625 C146.061826,296.263049 147.809205,299.113281 151.160784,299.113281 C151.790995,299.113281 152.406875,299.013022 153.00844,298.8125 C154.813137,298.23958 156.130832,297.05079 156.961565,295.246094 L157.992815,295.589844 Z M236.795317,275.308594 L236.795317,274.148438 L245.517973,274.148438 L245.517973,275.308594 L242.080473,275.308594 L242.080473,299.714844 L239.803129,300.144531 L223.131254,280.25 L223.131254,298.769531 L225.623442,298.769531 C226.225007,298.826823 226.611722,299.213538 226.783598,299.929688 L217.932035,299.929688 L217.932035,298.769531 L221.369535,298.769531 L221.369535,275.308594 L217.932035,275.308594 L217.932035,274.148438 L224.764067,274.148438 L240.318754,292.753906 L240.318754,275.308594 L236.795317,275.308594 Z M277.055943,290.648438 C277.055943,292.682302 277.19917,294.315098 277.48563,295.546875 C278.05855,298.010429 279.419213,299.242188 281.567661,299.242188 C282.283811,299.242188 282.928336,299.09896 283.501255,298.8125 C285.24866,297.867183 286.122349,295.088565 286.122349,290.476562 C286.122349,288.528636 285.979121,286.953131 285.692661,285.75 C285.119742,283.286446 283.744756,282.054688 281.567661,282.054688 C280.736928,282.054688 280.006467,282.240884 279.376255,282.613281 C277.829372,283.61589 277.055943,286.294249 277.055943,290.648438 Z M281.739536,280.9375 C284.031214,280.9375 286.007757,281.553379 287.669224,282.785156 C290.075486,284.561207 291.278599,287.124983 291.278599,290.476562 C291.278599,292.968762 290.533815,295.117178 289.044224,296.921875 C287.153589,299.213553 284.618458,300.359375 281.438755,300.359375 C279.118431,300.359375 277.09892,299.671882 275.380161,298.296875 C273.031191,296.406241 271.856724,293.799496 271.856724,290.476562 C271.856724,288.0703 272.572862,286.007821 274.005161,284.289062 C275.895796,282.054676 278.473895,280.9375 281.739536,280.9375 Z M318.047037,282.785156 L318.047037,281.667969 L321.011881,281.667969 L321.011881,277.585938 L325.738443,276.683594 L325.738443,281.667969 L331.754068,281.667969 L331.754068,282.785156 L325.738443,282.785156 L325.738443,295.804688 C325.738443,296.091147 325.752766,296.377603 325.781412,296.664062 C325.981934,298.296883 326.68375,299.113281 327.886881,299.113281 C329.290534,299.084635 330.307451,297.795586 330.937662,295.246094 L332.097818,295.417969 C331.925943,296.305994 331.696778,297.065101 331.410318,297.695312 C330.608231,299.500009 329.075694,300.402344 326.812662,300.402344 C323.203269,300.259114 321.269695,298.110698 321.011881,293.957031 L321.011881,282.785156 L318.047037,282.785156 Z M404.884695,299.929688 L391.048758,299.929688 L391.048758,298.769531 L394.486258,298.769531 L394.486258,275.308594 L391.048758,275.308594 L391.048758,274.148438 L412.017508,274.148438 L412.189383,282.398438 L411.072195,282.398438 L410.255789,279.5625 C410.255789,279.533854 410.241466,279.505208 410.21282,279.476562 C409.324795,276.697903 407.677676,275.308594 405.271414,275.308594 L399.771414,275.308594 L399.771414,286.007812 L408.236258,286.007812 L408.236258,287.296875 L399.771414,287.296875 L399.771414,298.769531 L404.884695,298.769531 L404.884695,299.929688 Z M443.727352,290.648438 C443.727352,292.682302 443.87058,294.315098 444.15704,295.546875 C444.729959,298.010429 446.090623,299.242188 448.239071,299.242188 C448.95522,299.242188 449.599745,299.09896 450.172665,298.8125 C451.920069,297.867183 452.793758,295.088565 452.793758,290.476562 C452.793758,288.528636 452.650531,286.953131 452.364071,285.75 C451.791151,283.286446 450.416165,282.054688 448.239071,282.054688 C447.408338,282.054688 446.677876,282.240884 446.047665,282.613281 C444.500782,283.61589 443.727352,286.294249 443.727352,290.648438 Z M448.410946,280.9375 C450.702624,280.9375 452.679167,281.553379 454.340633,282.785156 C456.746895,284.561207 457.950008,287.124983 457.950008,290.476562 C457.950008,292.968762 457.205224,295.117178 455.715633,296.921875 C453.824999,299.213553 451.289868,300.359375 448.110165,300.359375 C445.789841,300.359375 443.770329,299.671882 442.051571,298.296875 C439.702601,296.406241 438.528133,293.799496 438.528133,290.476562 C438.528133,288.0703 439.244272,286.007821 440.676571,284.289062 C442.567205,282.054676 445.145305,280.9375 448.410946,280.9375 Z M506.202822,298.8125 C506.374698,298.8125 506.532248,298.826823 506.675478,298.855469 C507.047876,298.912761 507.234072,299.27083 507.234072,299.929688 L500.101259,299.929688 L499.886415,296.148438 C499.685894,296.578127 499.442406,297.00781 499.155947,297.4375 C497.78094,299.385426 495.933302,300.359375 493.612978,300.359375 C489.545249,300.330729 487.497093,297.953149 487.468447,293.226562 L487.468447,282.613281 L484.718447,282.613281 L484.718447,281.539062 L492.195009,281.539062 L492.195009,293.914062 C492.195009,294.28646 492.223655,294.658852 492.280947,295.03125 C492.567406,297.179698 493.655937,298.253906 495.546572,298.253906 C496.119491,298.253906 496.692402,298.096356 497.265322,297.78125 C498.783558,296.864579 499.614279,295.260428 499.757509,292.96875 L499.800478,282.613281 L497.222353,282.613281 L497.222353,281.539062 L504.52704,281.539062 L504.52704,298.8125 L506.202822,298.8125 Z M542.639229,298.8125 C542.811105,298.8125 542.982978,298.826823 543.154854,298.855469 C543.527252,298.941407 543.713448,299.299476 543.713448,299.929688 L533.830635,299.929688 L533.830635,298.8125 C534.346263,298.8125 534.790269,298.769532 535.162666,298.683594 C536.107984,298.483072 536.580635,297.75261 536.580635,296.492188 L536.580635,282.613281 L533.830635,282.613281 L533.830635,281.539062 L541.049385,281.539062 L541.264229,285.105469 C541.550689,284.503903 541.923081,283.930992 542.381416,283.386719 C543.813715,281.753898 545.561094,280.9375 547.623604,280.9375 C548.482983,280.9375 549.285058,281.095051 550.029854,281.410156 C552.378824,282.384119 553.553291,284.561181 553.553291,287.941406 L553.553291,298.8125 L555.229073,298.8125 C555.400948,298.8125 555.572822,298.826823 555.744698,298.855469 C556.117095,298.941407 556.303291,299.299476 556.303291,299.929688 L546.463448,299.929688 L546.463448,298.8125 C547.065013,298.8125 547.523342,298.755209 547.838448,298.640625 C548.497305,298.411457 548.826729,297.695319 548.826729,296.492188 L548.826729,287.296875 C548.826729,286.666664 548.755115,286.093753 548.611885,285.578125 C548.182195,283.888012 547.165279,283.042969 545.561104,283.042969 C545.01683,283.042969 544.472565,283.186196 543.928291,283.472656 C542.410055,284.332036 541.550688,285.907541 541.350166,288.199219 L541.307198,298.8125 L542.639229,298.8125 Z M597.938917,299.929688 L597.423292,295.761719 C597.337354,295.990887 597.222772,296.234374 597.079542,296.492188 C595.761827,299.070325 593.699348,300.359375 590.892042,300.359375 C589.316513,300.359375 587.884236,299.901046 586.595167,298.984375 C584.274843,297.294262 583.114698,294.673195 583.114698,291.121094 C583.114698,288.485664 583.787869,286.236988 585.13423,284.375 C586.824342,282.083322 589.08734,280.9375 591.923292,280.9375 C594.043094,280.9375 595.833441,281.61067 597.294386,282.957031 L597.294386,273.117188 L593.341261,273.117188 L593.341261,272 L602.063917,272 L602.063917,298.8125 L604.083448,298.8125 C604.312616,298.8125 604.498812,298.826823 604.642042,298.855469 C604.985794,298.941407 605.157667,299.299476 605.157667,299.929688 L597.938917,299.929688 Z M588.313917,290.605469 C588.313917,291.779954 588.399854,292.854162 588.57173,293.828125 C589.144649,296.92189 590.49099,298.46875 592.610792,298.46875 C593.384234,298.46875 594.086049,298.239586 594.716261,297.78125 C596.492311,296.463535 597.380323,293.799499 597.380323,289.789062 C597.380323,288.414056 597.251418,287.19662 596.993605,286.136719 C596.334747,283.529935 595.017052,282.226562 593.04048,282.226562 C592.381622,282.226562 591.75142,282.398436 591.149855,282.742188 C589.25922,283.859381 588.313917,286.480448 588.313917,290.605469 Z"/>
  </g>
</svg>
