<svg xmlns="http://www.w3.org/2000/svg" width="602" height="298" viewBox="0 0 602 298">
  <defs>
    <linearGradient id="500-a" x1="50%" x2="50%" y1="0%" y2="100%">
      <stop offset="0%" stop-color="#DC4041"/>
      <stop offset="100%" stop-color="#333"/>
    </linearGradient>
    <linearGradient id="500-b" x1="50%" x2="50%" y1="0%" y2="100%">
      <stop offset="0%" stop-color="#333"/>
      <stop offset="100%" stop-color="#DC4041"/>
    </linearGradient>
  </defs>
  <g fill="none">
    <path fill="url(#500-a)" d="M72.3359375,290.164062 C72.3359375,292.026051 71.6770899,293.601556 70.359375,294.890625 C68.4687405,296.723967 65.7617364,297.640625 62.2382812,297.640625 C59.2304537,297.640625 56.6093862,296.910164 54.375,295.449219 C54.375,295.993492 54.3463545,296.39453 54.2890625,296.652344 C54.1458326,297.082033 53.7161494,297.296875 53,297.296875 L53,288.273438 L54.546875,288.273438 C54.6328129,289.390631 54.819009,290.42187 55.1054688,291.367188 C56.1940159,294.718767 58.4426913,296.394531 61.8515625,296.394531 C62.7682338,296.394531 63.5989546,296.236981 64.34375,295.921875 C66.2057385,295.17708 67.1367188,293.802093 67.1367188,291.796875 C67.1367188,291.138018 66.9791682,290.507816 66.6640625,289.90625 C66.062497,288.703119 64.5013147,287.485683 61.9804688,286.253906 C59.259101,284.907545 57.6835959,284.119793 57.2539062,283.890625 C54.5611845,282.257804 53.2148438,280.238293 53.2148438,277.832031 C53.2148438,276.227857 53.7877547,274.838548 54.9335938,273.664062 C56.6809983,271.888012 59.2161292,271 62.5390625,271 C65.1458464,271 67.5807179,271.558588 69.84375,272.675781 C69.84375,272.417967 69.8580728,272.188803 69.8867188,271.988281 C70.0013027,271.444008 70.4596314,271.171875 71.2617188,271.171875 L71.2617188,278.863281 L69.7148438,278.863281 C69.7148438,277.287753 69.3138061,275.927089 68.5117188,274.78125 C67.3085877,273.091137 65.5325638,272.246094 63.1835938,272.246094 C62.4387984,272.246094 61.7369825,272.374999 61.078125,272.632812 C59.4166584,273.263024 58.5859375,274.437491 58.5859375,276.15625 C58.5859375,276.815107 58.743488,277.459632 59.0585938,278.089844 C59.6601593,279.264329 61.192696,280.467442 63.65625,281.699219 C66.3489718,283.016934 67.8958313,283.790363 68.296875,284.019531 C70.9895968,285.680998 72.3359375,287.729154 72.3359375,290.164062 Z M109.674688,279.335938 C109.359583,279.335938 109.030159,279.378906 108.686407,279.464844 C106.652543,280.095055 105.578335,282.44399 105.463751,286.511719 L108.772345,286.640625 C109.975476,286.669271 110.892133,286.597657 111.522345,286.425781 C112.496308,286.08203 112.983282,285.236986 112.983282,283.890625 C112.983282,283.403643 112.940314,282.930992 112.854376,282.472656 C112.510624,280.3815 111.450739,279.335938 109.674688,279.335938 Z M117.53797,292.871094 C117.366094,293.300783 117.151252,293.730467 116.893438,294.160156 C115.432494,296.48048 113.069236,297.640625 109.803595,297.640625 C107.884314,297.640625 106.151259,297.210942 104.604376,296.351562 C101.711132,294.66145 100.264532,291.854186 100.264532,287.929688 C100.264532,285.523425 100.880411,283.475269 102.112188,281.785156 C103.859593,279.40754 106.380401,278.21875 109.674688,278.21875 C111.479385,278.21875 113.097858,278.562497 114.530157,279.25 C116.821835,280.395839 117.967657,282.100249 117.967657,284.363281 C117.967657,284.993493 117.824429,285.537758 117.53797,285.996094 C116.67859,287.313809 114.100491,287.929688 109.803595,287.84375 L105.463751,287.757812 L105.463751,287.84375 C105.606981,293.544299 107.354359,296.394531 110.705938,296.394531 C111.33615,296.394531 111.952029,296.294272 112.553595,296.09375 C114.358291,295.52083 115.675986,294.33204 116.50672,292.527344 L117.53797,292.871094 Z M155.392345,296.09375 C155.535575,296.09375 155.66448,296.108073 155.779064,296.136719 C156.208754,296.194011 156.423595,296.55208 156.423595,297.210938 L144.779064,297.210938 L144.779064,296.09375 C145.351984,296.09375 145.824635,296.050782 146.197033,295.964844 C147.056412,295.735676 147.486095,295.005214 147.486095,293.773438 L147.486095,279.894531 L144.779064,279.894531 L144.779064,278.820312 L151.868908,278.820312 L152.12672,282.859375 C152.470472,282.028642 152.943124,281.283857 153.544689,280.625 C154.919696,279.192701 156.480878,278.476562 158.228283,278.476562 C158.572035,278.476562 158.915781,278.519531 159.259533,278.605469 C160.605894,278.94922 161.279064,279.808587 161.279064,281.183594 C161.279064,281.527345 161.20745,281.856769 161.06422,282.171875 C160.634531,283.174484 159.904069,283.675781 158.872814,283.675781 C158.586354,283.675781 158.314222,283.632813 158.056408,283.546875 C157.512134,283.374999 156.996515,282.830734 156.509533,281.914062 C156.137135,281.255205 155.764743,280.925781 155.392345,280.925781 C155.163178,280.925781 154.891045,281.026041 154.575939,281.226562 C153.229578,282.17188 152.456149,284.019518 152.255627,286.769531 L152.255627,296.09375 L155.392345,296.09375 Z M195.610003,279.894531 L192.688128,279.894531 L197.672503,293.386719 L202.828753,279.894531 L199.434221,279.894531 L199.434221,278.820312 L206.266253,278.820312 C206.266253,279.19271 206.237607,279.464843 206.180315,279.636719 C206.123023,279.808595 205.85089,279.894531 205.363909,279.894531 C205.192033,279.894531 205.02016,279.908854 204.848284,279.9375 C204.389948,280.023438 204.017556,280.453121 203.731096,281.226562 L197.543596,297.425781 L196.297503,297.425781 C195.724583,297.425781 195.280577,297.339845 194.965471,297.167969 C194.47849,296.881509 193.934224,295.936206 193.332659,294.332031 L187.961565,279.894531 L186.199846,279.894531 L186.199846,278.820312 L195.610003,278.820312 L195.610003,279.894531 Z M241.800316,279.335938 C241.48521,279.335938 241.155786,279.378906 240.812035,279.464844 C238.77817,280.095055 237.703962,282.44399 237.589378,286.511719 L240.897972,286.640625 C242.101103,286.669271 243.017761,286.597657 243.647972,286.425781 C244.621935,286.08203 245.10891,285.236986 245.10891,283.890625 C245.10891,283.403643 245.065941,282.930992 244.980003,282.472656 C244.636252,280.3815 243.576366,279.335938 241.800316,279.335938 Z M249.663597,292.871094 C249.491721,293.300783 249.27688,293.730467 249.019066,294.160156 C247.558121,296.48048 245.194863,297.640625 241.929222,297.640625 C240.009942,297.640625 238.276886,297.210942 236.730003,296.351562 C233.83676,294.66145 232.39016,291.854186 232.39016,287.929688 C232.39016,285.523425 233.006039,283.475269 234.237816,281.785156 C235.98522,279.40754 238.506029,278.21875 241.800316,278.21875 C243.605012,278.21875 245.223486,278.562497 246.655785,279.25 C248.947463,280.395839 250.093285,282.100249 250.093285,284.363281 C250.093285,284.993493 249.950057,285.537758 249.663597,285.996094 C248.804218,287.313809 246.226119,287.929688 241.929222,287.84375 L237.589378,287.757812 L237.589378,287.84375 C237.732608,293.544299 239.479987,296.394531 242.831566,296.394531 C243.461777,296.394531 244.077657,296.294272 244.679222,296.09375 C246.483919,295.52083 247.801614,294.33204 248.632347,292.527344 L249.663597,292.871094 Z M287.517973,296.09375 C287.661203,296.09375 287.790108,296.108073 287.904692,296.136719 C288.334381,296.194011 288.549223,296.55208 288.549223,297.210938 L276.904692,297.210938 L276.904692,296.09375 C277.477611,296.09375 277.950263,296.050782 278.32266,295.964844 C279.18204,295.735676 279.611723,295.005214 279.611723,293.773438 L279.611723,279.894531 L276.904692,279.894531 L276.904692,278.820312 L283.994535,278.820312 L284.252348,282.859375 C284.5961,282.028642 285.068751,281.283857 285.670317,280.625 C287.045324,279.192701 288.606506,278.476562 290.35391,278.476562 C290.697662,278.476562 291.041409,278.519531 291.38516,278.605469 C292.731521,278.94922 293.404692,279.808587 293.404692,281.183594 C293.404692,281.527345 293.333078,281.856769 293.189848,282.171875 C292.760158,283.174484 292.029697,283.675781 290.998442,283.675781 C290.711982,283.675781 290.439849,283.632813 290.182035,283.546875 C289.637762,283.374999 289.122142,282.830734 288.63516,281.914062 C288.262763,281.255205 287.890371,280.925781 287.517973,280.925781 C287.288805,280.925781 287.016672,281.026041 286.701567,281.226562 C285.355206,282.17188 284.581776,284.019518 284.381254,286.769531 L284.381254,296.09375 L287.517973,296.09375 Z M373.496256,279.507812 L372.379068,279.507812 L371.562662,276.84375 C371.476724,276.55729 371.376465,276.285158 371.261881,276.027344 C370.34521,273.735666 368.784027,272.589844 366.578287,272.589844 L361.078287,272.589844 L361.078287,283.289062 L369.543131,283.289062 L369.543131,284.578125 L361.078287,284.578125 L361.078287,296.050781 L366.578287,296.050781 C367.151207,296.050781 367.681149,295.979167 368.168131,295.835938 C369.657722,295.377602 370.774898,294.031261 371.519693,291.796875 L372.379068,289.132812 L373.496256,289.132812 L373.324381,297.210938 L352.355631,297.210938 L352.355631,296.050781 L355.793131,296.050781 L355.793131,272.589844 L352.355631,272.589844 L352.355631,271.429688 L373.324381,271.429688 L373.496256,279.507812 Z M411.780319,296.09375 C411.923549,296.09375 412.052454,296.108073 412.167038,296.136719 C412.596728,296.194011 412.811569,296.55208 412.811569,297.210938 L401.167038,297.210938 L401.167038,296.09375 C401.739957,296.09375 402.212609,296.050782 402.585007,295.964844 C403.444386,295.735676 403.874069,295.005214 403.874069,293.773438 L403.874069,279.894531 L401.167038,279.894531 L401.167038,278.820312 L408.256882,278.820312 L408.514694,282.859375 C408.858446,282.028642 409.331097,281.283857 409.932663,280.625 C411.30767,279.192701 412.868852,278.476562 414.616257,278.476562 C414.960008,278.476562 415.303755,278.519531 415.647507,278.605469 C416.993868,278.94922 417.667038,279.808587 417.667038,281.183594 C417.667038,281.527345 417.595424,281.856769 417.452194,282.171875 C417.022505,283.174484 416.292043,283.675781 415.260788,283.675781 C414.974328,283.675781 414.702196,283.632813 414.444382,283.546875 C413.900108,283.374999 413.384488,282.830734 412.897507,281.914062 C412.525109,281.255205 412.152717,280.925781 411.780319,280.925781 C411.551151,280.925781 411.279019,281.026041 410.963913,281.226562 C409.617552,282.17188 408.844122,284.019518 408.6436,286.769531 L408.6436,296.09375 L411.780319,296.09375 Z M454.146414,296.09375 C454.289644,296.09375 454.418549,296.108073 454.533133,296.136719 C454.962822,296.194011 455.177664,296.55208 455.177664,297.210938 L443.533133,297.210938 L443.533133,296.09375 C444.106052,296.09375 444.578704,296.050782 444.951101,295.964844 C445.810481,295.735676 446.240164,295.005214 446.240164,293.773438 L446.240164,279.894531 L443.533133,279.894531 L443.533133,278.820312 L450.622976,278.820312 L450.880789,282.859375 C451.224541,282.028642 451.697192,281.283857 452.298758,280.625 C453.673764,279.192701 455.234947,278.476562 456.982351,278.476562 C457.326103,278.476562 457.66985,278.519531 458.013601,278.605469 C459.359962,278.94922 460.033133,279.808587 460.033133,281.183594 C460.033133,281.527345 459.961519,281.856769 459.818289,282.171875 C459.388599,283.174484 458.658138,283.675781 457.626883,283.675781 C457.340423,283.675781 457.06829,283.632813 456.810476,283.546875 C456.266203,283.374999 455.750583,282.830734 455.263601,281.914062 C454.891204,281.255205 454.518811,280.925781 454.146414,280.925781 C453.917246,280.925781 453.645113,281.026041 453.330008,281.226562 C451.983647,282.17188 451.210217,284.019518 451.009695,286.769531 L451.009695,296.09375 L454.146414,296.09375 Z M491.485165,287.929688 C491.485165,289.963552 491.628392,291.596348 491.914852,292.828125 C492.487772,295.291679 493.848435,296.523438 495.996883,296.523438 C496.713033,296.523438 497.357558,296.38021 497.930477,296.09375 C499.677882,295.148433 500.551571,292.369815 500.551571,287.757812 C500.551571,285.809886 500.408343,284.234381 500.121883,283.03125 C499.548964,280.567696 498.173978,279.335938 495.996883,279.335938 C495.16615,279.335938 494.435689,279.522134 493.805477,279.894531 C492.258594,280.89714 491.485165,283.575499 491.485165,287.929688 Z M496.168758,278.21875 C498.460437,278.21875 500.436979,278.834629 502.098446,280.066406 C504.504708,281.842457 505.707821,284.406233 505.707821,287.757812 C505.707821,290.250012 504.963037,292.398428 503.473446,294.203125 C501.582811,296.494803 499.047681,297.640625 495.867977,297.640625 C493.547653,297.640625 491.528142,296.953132 489.809383,295.578125 C487.460413,293.687491 486.285946,291.080746 486.285946,287.757812 C486.285946,285.35155 487.002085,283.289071 488.434383,281.570312 C490.325018,279.335926 492.903117,278.21875 496.168758,278.21875 Z M543.390322,296.09375 C543.533552,296.09375 543.662457,296.108073 543.77704,296.136719 C544.20673,296.194011 544.421572,296.55208 544.421572,297.210938 L532.77704,297.210938 L532.77704,296.09375 C533.34996,296.09375 533.822612,296.050782 534.195009,295.964844 C535.054389,295.735676 535.484072,295.005214 535.484072,293.773438 L535.484072,279.894531 L532.77704,279.894531 L532.77704,278.820312 L539.866884,278.820312 L540.124697,282.859375 C540.468448,282.028642 540.9411,281.283857 541.542665,280.625 C542.917672,279.192701 544.478855,278.476562 546.226259,278.476562 C546.570011,278.476562 546.913758,278.519531 547.257509,278.605469 C548.60387,278.94922 549.27704,279.808587 549.27704,281.183594 C549.27704,281.527345 549.205427,281.856769 549.062197,282.171875 C548.632507,283.174484 547.902046,283.675781 546.87079,283.675781 C546.584331,283.675781 546.312198,283.632813 546.054384,283.546875 C545.510111,283.374999 544.994491,282.830734 544.507509,281.914062 C544.135112,281.255205 543.762719,280.925781 543.390322,280.925781 C543.161154,280.925781 542.889021,281.026041 542.573915,281.226562 C541.227555,282.17188 540.454125,284.019518 540.253603,286.769531 L540.253603,296.09375 L543.390322,296.09375 Z"/>
    <path fill="url(#500-b)" d="M152,166.313546 C152,184.034589 145.876838,199.121196 133.630332,211.57382 C117.061529,227.858022 94.1296883,236 64.8341232,236 C50.6665958,236 38.1801488,233.485565 27.3744076,228.456621 C9.12471128,220.075047 0,207.502874 0,190.739726 C0,188.823938 0.240123981,186.788443 0.720379147,184.633181 C2.88152739,174.575292 9.60499886,169.546423 20.8909953,169.546423 C26.8941848,169.546423 31.5766025,170.983243 34.9383886,173.856925 C39.0205575,177.209555 41.5418593,184.992329 42.5023697,197.205479 C42.7424973,202.952845 43.2227452,207.143569 43.943128,209.777778 C46.3444038,221.033034 53.7882472,226.660578 66.2748815,226.660578 C72.7583263,226.660578 78.6413638,225.463229 83.9241706,223.068493 C101.693612,215.40534 110.578199,196.726683 110.578199,167.031963 C110.578199,157.692495 109.257517,149.191312 106.616114,141.528158 C99.8925414,122.609748 86.6857225,113.150685 66.9952607,113.150685 C53.3079884,113.150685 39.9811075,118.299289 27.014218,128.596651 L14.7677725,119.25723 L14.7677725,14.0091324 C63.993927,16.1643943 88.8467591,17.2420091 89.3270142,17.2420091 C99.1722451,17.2420091 106.616089,16.5235993 111.658768,15.086758 C118.862595,13.1709696 123.785137,8.14210058 126.42654,0 L135.791469,0 C135.551342,19.1578837 132.309668,32.4484662 126.066351,39.8721461 C119.102651,46.5774054 102.77422,49.9299848 77.0805687,49.9299848 C62.4327862,49.9299848 45.7441695,48.85237 27.014218,46.6971081 L27.014218,114.587519 C42.6225109,104.769104 60.1515615,99.7402346 79.6018957,99.500761 C95.4503162,99.500761 109.377507,102.973075 121.383886,109.917808 C141.794731,121.652012 152,140.450403 152,166.313546 Z M311.113208,0 C328.559836,0 343.85528,4.94309838 357,14.8294434 C382.33346,34.6021336 395,69.2038223 395,118.635548 C395,148.294583 389.264208,173.433769 377.792453,194.05386 C362.257784,222.018093 339.434113,236 309.320755,236 C289.962167,236 273.232775,229.785819 259.132075,217.357271 C235.710575,196.172246 224,162.700408 224,116.940754 C224,87.2817189 229.855287,62.1425328 241.566038,41.5224417 C257.578696,13.8406755 280.760855,0 311.113208,0 Z M311.888889,225 C318.525959,225 324.333308,223.023877 329.311111,219.071571 C343.770443,207.214652 351,173.1971 351,117.017893 C351,90.4809806 349.340757,69.1670785 346.022222,53.0755467 C340.570343,25.691712 329.074162,12 311.533333,12 C306.081454,12 301.222244,13.270365 296.955556,15.8111332 C279.651765,25.9742059 271,60.4152134 271,119.135189 C271,148.212869 272.896277,170.938288 276.688889,187.312127 C282.377806,212.437501 294.111022,225 311.888889,225 Z M518.113208,0 C535.559836,0 550.85528,4.94309838 564,14.8294434 C589.33346,34.6021336 602,69.2038223 602,118.635548 C602,148.294583 596.264208,173.433769 584.792453,194.05386 C569.257784,222.018093 546.434113,236 516.320755,236 C496.962167,236 480.232775,229.785819 466.132075,217.357271 C442.710575,196.172246 431,162.700408 431,116.940754 C431,87.2817189 436.855287,62.1425328 448.566038,41.5224417 C464.578696,13.8406755 487.760855,0 518.113208,0 Z M518.888889,225 C525.525959,225 531.333308,223.023877 536.311111,219.071571 C550.770443,207.214652 558,173.1971 558,117.017893 C558,90.4809806 556.340757,69.1670785 553.022222,53.0755467 C547.570343,25.691712 536.074162,12 518.533333,12 C513.081454,12 508.222244,13.270365 503.955556,15.8111332 C486.651765,25.9742059 478,60.4152134 478,119.135189 C478,148.212869 479.896277,170.938288 483.688889,187.312127 C489.377806,212.437501 501.111022,225 518.888889,225 Z"/>
  </g>
</svg>
